# xmcd
#
# Track frame offsets: 
#        150
#        9294
#        19845
#        29728
#        40585
#        51426
#        61885
#        71597
#        82920
#        91915
#        103800
#        112651
#        122470
#        132540
#        142364
#        152874
#        161087
#        171812
#        180726
#        194818
#        205523
#        217077
#        227522
#        237215
#        245773
#        258534
#        268397
#        279841
#        289398
#        300241
#        315429
#
# Disc length: 4365 seconds
#
# Revision: 0
# Processed by: cddbd v1.5.2PL0 Copyright (c) Steve Scherf et al.
# Submitted via: ExactAudioCopy v1.1
#
DISCID=c3110b1f
DTITLE=Sonny James - The Singles Collection 1952-62_CD2
DYEAR=2016
DGENRE=Country
TTITLE0=Sonny James (The Southern Gentleman) - A Mighty Loveable Man
TTITLE1=Sonny James (The Southern Gentleman) - Love Came Love Saw Love
TTITLE1=Conquered
TTITLE2=Uh-Huh-Mm
TTITLE3=Why Can't They Remember
TTITLE4=Kathleen
TTITLE5=Walk to the Dance
TTITLE6=Are You Mine
TTITLE7=Lets Play Love
TTITLE8=You Got That Touch
TTITLE9=I Can See It in Your Eyes
TTITLE10=Let Me Be the One to Love You
TTITLE11=Dream Big
TTITLE12=Yo-Yo
TTITLE13=Talk of the School
TTITLE14=Sonny James With The Eligibles - The Table
TTITLE15=Sonny James With The Eligibles - Pure Love
TTITLE16=This Love of Mine 
TTITLE17=Who's Next in Line
TTITLE18=Sonny James With Hub Atwood's Strings - I Forgot More Than Yo
TTITLE18=ull Ever Know 
TTITLE19=Till Tomorrow
TTITLE20=Jenny Lou
TTITLE21=Passin Through
TTITLE22=Wonderin'
TTITLE23=Sonny James (The Southern Gentleman) - Bimbo
TTITLE24=Sonny James (The Southern Gentleman) - Apache
TTITLE25=Innocent Angel
TTITLE26=Young Love
TTITLE27=The Day's Not over Yet
TTITLE28=Just One More Lie
TTITLE29=On the Longest Day
TTITLE30=The Only Cure
EXTD=
EXTT0=
EXTT1=
EXTT2=
EXTT3=
EXTT4=
EXTT5=
EXTT6=
EXTT7=
EXTT8=
EXTT9=
EXTT10=
EXTT11=
EXTT12=
EXTT13=
EXTT14=
EXTT15=
EXTT16=
EXTT17=
EXTT18=
EXTT19=
EXTT20=
EXTT21=
EXTT22=
EXTT23=
EXTT24=
EXTT25=
EXTT26=
EXTT27=
EXTT28=
EXTT29=
EXTT30=
PLAYORDER=
